<svg version="1.1" xmlns="http://www.w3.org/2000/svg" xmlns:xlink="http://www.w3.org/1999/xlink" width="32px" height="32px" viewBox="0,0,256,256"><g fill="#17ccfb" fill-rule="nonzero" stroke="none" stroke-width="1" stroke-linecap="butt" stroke-linejoin="miter" stroke-miterlimit="10" stroke-dasharray="" stroke-dashoffset="0" font-family="none" font-weight="none" font-size="none" text-anchor="none" style="mix-blend-mode: normal"><g transform="translate(12,0) scale(8,8)"><g><path d="M27,32h-9.1c-1.5,0 -2.8,-0.6 -3.9,-1.6l-13.7,-13.7c-0.4,-0.4 -0.4,-1 0,-1.4c0.4,-0.4 1,-0.4 1.4,0l13.7,13.7c0.7,0.6 1.5,1 2.5,1h9.1c0.6,0 1,0.4 1,1c0,0.6 -0.4,1 -1,1z"></path></g><path d="M27.1,23h-10.1c-0.6,0 -1,-0.4 -1,-1c0,-0.6 0.4,-1 1,-1h5.8c-0.4,-0.3 -0.7,-0.6 -1,-1h-6.8c-0.6,0 -1,-0.4 -1,-1c0,-0.6 0.4,-1 1,-1h5.6c-0.4,-1.1 -0.6,-2.4 -0.6,-4c0,-0.3 -0.1,-0.5 -0.3,-0.7c-0.2,-0.2 -0.4,-0.3 -0.7,-0.3h-1c-3.3,0 -7,-3.7 -7,-7c0,-0.4 -0.3,-0.8 -0.6,-0.9c-0.4,-0.2 -0.9,-0.1 -1.2,0.2l-7,8c-0.3,0.4 -0.3,1 0,1.4l12.8,12.7c1,1 2.4,1.6 3.9,1.6h8.1c0.5,0 0.9,-0.3 1,-0.8l0.4,-1.8c0.2,-0.9 0.1,-1.8 -0.4,-2.5c-0.2,-0.3 -0.5,-0.6 -0.9,-0.9zM10.5,18c-1.4,0 -2.5,-1.1 -2.5,-2.5c0,-1.4 1.1,-2.5 2.5,-2.5c1.4,0 2.5,1.1 2.5,2.5c0,1.4 -1.1,2.5 -2.5,2.5z"></path><g><path d="M19,15.7c-0.4,0 -0.8,-0.3 -1,-0.7c-0.7,-2.6 0,-5.5 2,-7.4l7.3,-7.3c0.4,-0.4 1,-0.4 1.4,0c0.4,0.4 0.4,1 0,1.4l-7.3,7.3c-1.4,1.4 -2,3.5 -1.5,5.5c0.1,0.5 -0.2,1.1 -0.7,1.2c0,0 -0.1,0 -0.2,0z"></path></g><g><path d="M10,8c-0.4,0 -0.8,-0.3 -0.9,-0.7c-0.2,-0.5 0.1,-1.1 0.6,-1.2c1.7,-0.6 3.2,-1.7 4.1,-3.3l1.4,-2.3c0.2,-0.5 0.8,-0.6 1.3,-0.4c0.5,0.3 0.6,0.9 0.4,1.4l-1.4,2.3c-1.2,2 -3,3.4 -5.2,4.1c-0.1,0.1 -0.2,0.1 -0.3,0.1z"></path></g></g></g></svg>